<?xml version="1.0" standalone="no"?>
<!DOCTYPE svg PUBLIC "-//W3C//DTD SVG 20010904//EN"
 "http://www.w3.org/TR/2001/REC-SVG-20010904/DTD/svg10.dtd">
<svg version="1.0" xmlns="http://www.w3.org/2000/svg"
 width="1280.000000pt" height="902.000000pt" viewBox="0 0 1280.000000 902.000000"
 preserveAspectRatio="xMidYMid meet">
<metadata>
Created by potrace 1.15, written by Peter Selinger 2001-2017
</metadata>
<g transform="translate(0.000000,902.000000) scale(0.100000,-0.100000)"
fill="#000000" stroke="none">
<path d="M7901 9001 c-24 -24 -27 -131 -41 -1486 -6 -539 -15 -1313 -20 -1720
-5 -407 -14 -1192 -20 -1745 -6 -553 -13 -1091 -16 -1196 l-6 -192 -57 13
c-31 8 -67 18 -80 23 l-24 9 2 1329 2 1329 -159 79 -159 79 -141 -32 c-79 -17
-147 -31 -152 -31 -7 0 -10 261 -10 735 l0 734 -50 7 -50 7 0 328 c0 181 -4
329 -8 329 -11 0 -22 -246 -22 -478 l0 -174 -57 7 c-32 4 -61 9 -64 11 -4 2
-4 60 -2 129 l6 124 -28 11 c-67 25 -99 27 -172 7 l-73 -20 0 -109 c0 -120 4
-114 -72 -102 l-38 7 0 127 0 128 -44 11 c-60 15 -86 14 -155 -5 l-58 -17 -9
-120 -9 -121 -102 -44 -103 -45 -2 -1036 c-1 -570 -3 -1018 -5 -996 -9 105 -9
105 -63 105 -28 0 -50 -3 -51 -7 0 -5 -17 -174 -37 -378 l-37 -369 -40 -12
c-22 -6 -55 -15 -73 -18 l-32 -8 0 454 0 454 -159 87 c-88 48 -169 87 -180 87
-16 0 -198 -40 -253 -56 -17 -5 -18 62 -18 1310 0 1241 -1 1317 -17 1332 -10
8 -28 23 -40 32 -22 16 -23 26 -34 321 -10 237 -16 304 -26 308 -8 3 -16 4
-18 1 -3 -2 -9 -125 -15 -274 -14 -347 -12 -334 -56 -334 -44 0 -93 -21 -119
-50 -20 -22 -20 -40 -25 -1378 l-5 -1356 -115 -28 c-63 -15 -123 -27 -132 -28
-17 0 -18 28 -18 450 0 248 -4 450 -8 450 -9 0 -22 -328 -22 -547 0 -69 -4
-123 -8 -121 -5 2 -40 16 -79 33 l-70 29 -7 126 c-3 69 -6 252 -6 408 0 186
-3 281 -10 277 -6 -4 -11 -99 -11 -248 -1 -133 -5 -316 -8 -407 l-6 -164 -45
-13 c-25 -6 -64 -17 -87 -23 l-43 -11 -2 -172 -3 -172 -42 -9 -43 -9 0 -319
c0 -252 -3 -319 -12 -315 -85 31 -70 32 -379 -22 -162 -28 -298 -51 -302 -51
-4 0 -7 568 -7 1263 l0 1264 -30 44 c-32 49 -86 92 -167 132 -58 30 -49 7 -96
251 -22 117 -24 120 -53 128 -16 5 -46 6 -66 2 -41 -6 -36 6 -74 -189 -9 -49
-20 -94 -24 -98 -5 -5 -17 -6 -29 -2 -21 6 -21 10 -21 331 0 178 -4 324 -8
324 -11 0 -22 -232 -22 -467 l0 -183 -119 0 c-294 0 -530 -88 -631 -235 l-30
-44 0 -1344 0 -1345 -32 -6 c-18 -3 -56 -8 -84 -12 l-51 -6 -6 68 c-4 38 -7
198 -7 357 0 184 -4 287 -10 287 -6 0 -10 -46 -10 -118 0 -65 -3 -227 -7 -359
l-6 -241 -39 -6 -38 -6 0 -640 c0 -504 -3 -641 -13 -645 -6 -2 -81 -6 -166 -8
l-153 -5 3 1506 4 1506 -69 31 -68 31 1 127 2 127 -90 0 c-76 0 -150 -10 -258
-35 -19 -5 -22 -13 -25 -67 l-3 -63 -320 -60 -320 -61 -3 -2897 -2 -2897 6395
0 6395 0 0 743 c0 409 3 1398 7 2198 l6 1454 -31 12 -32 11 0 189 c0 103 -3
286 -7 406 l-6 217 -24 0 c-17 0 -23 -6 -23 -22 -1 -74 -38 -739 -41 -742 -2
-2 -35 9 -74 24 l-70 28 -3 79 -3 80 -82 -13 c-45 -7 -92 -11 -104 -8 -13 4
-53 1 -90 -6 -38 -7 -92 -14 -122 -16 -29 -1 -66 -6 -81 -9 l-27 -6 -7 203
c-3 112 -9 433 -12 714 l-7 511 66 7 c89 9 189 41 227 72 59 50 33 119 -64
165 -54 26 -95 37 -197 53 l-36 6 -7 377 c-4 208 -12 385 -17 395 -14 26 -58
34 -88 17 -25 -14 -26 -18 -32 -149 -4 -74 -7 -248 -8 -387 l-1 -252 -47 -6
c-128 -17 -239 -59 -273 -103 -42 -53 -12 -123 65 -152 41 -16 169 -40 211
-40 l34 0 0 -127 c0 -71 -4 -393 -10 -718 -5 -324 -14 -889 -20 -1255 -24
-1629 -25 -1636 -30 -456 l-5 1079 -41 15 -41 15 -6 261 c-4 144 -7 336 -7
429 0 104 -4 167 -10 167 -6 0 -10 -64 -10 -172 0 -95 -3 -284 -7 -419 l-6
-246 -78 31 -79 31 0 197 0 197 -40 12 -40 12 -2 336 -3 336 -9 -331 -8 -331
-89 35 -89 34 -96 -22 c-53 -12 -98 -19 -102 -15 -3 3 -8 65 -11 138 -5 163
-19 142 -20 -30 l-1 -122 -37 -10 c-21 -5 -62 -14 -90 -21 l-53 -12 -2 -195
-3 -195 -180 -54 c-99 -30 -197 -59 -217 -64 l-38 -11 0 -310 0 -311 -36 7
c-30 5 -50 -1 -128 -40 -272 -136 -528 -110 -848 90 l-70 43 -55 -19 c-31 -10
-57 -19 -58 -19 -4 0 -15 226 -55 1085 -22 473 -42 903 -46 957 l-6 96 -115
41 c-63 23 -123 41 -132 41 -9 0 -96 -19 -193 -42 l-177 -43 -5 -70 c-6 -74
-146 -3304 -146 -3367 0 -36 -1 -37 -50 -47 -28 -6 -62 -11 -74 -11 l-24 0 -6
233 c-3 127 -11 642 -16 1142 -6 501 -15 1261 -20 1690 -5 429 -14 1147 -20
1595 -19 1623 -20 1670 -41 1691 -24 24 -64 24 -88 0z"/>
</g>
</svg>
